<svg xmlns="http://www.w3.org/2000/svg" viewBox="0 0 64 64" aria-hidden="true" focusable="false">
  <rect x="10" y="10" width="44" height="44" rx="14" fill="#171D3D" stroke="#8B7CFF" stroke-width="2.5"/>
  <path d="M21 4v6m11-6v6m11-6v6M21 54v6m11-6v6m11-6v6M4 21h6M4 32h6M4 43h6M54 21h6M54 32h6M54 43h6" fill="none" stroke="#54C9FF" stroke-linecap="round" stroke-width="2.5"/>
  <path d="M33 18c1.1 7.3 3.7 9.9 11 11-7.3 1.1-9.9 3.7-11 11-1.1-7.3-3.7-9.9-11-11 7.3-1.1 9.9-3.7 11-11Z" fill="#A7E6FF"/>
  <circle cx="45" cy="18" r="3" fill="#8B7CFF"/>
  <circle cx="20" cy="44" r="2.5" fill="#54C9FF"/>
</svg>
