<svg xmlns="http://www.w3.org/2000/svg" viewBox="0 0 48 48" aria-hidden="true" focusable="false">
  <rect x="10" y="10" width="28" height="28" rx="7" fill="#322A63" stroke="#8B7CFF" stroke-width="2"/>
  <path fill="none" stroke="#8B7CFF" stroke-linecap="round" stroke-width="2.5" d="M16 5v5m8-5v5m8-5v5M16 38v5m8-5v5m8-5v5M5 16h5m-5 8h5m-5 8h5M38 16h5m-5 8h5m-5 8h5"/>
  <path fill="#67E8F9" d="M25 15.5c.9 5 2.5 6.7 7.5 7.5-5 .9-6.6 2.5-7.5 7.5-.9-5-2.5-6.6-7.5-7.5 5-.8 6.6-2.5 7.5-7.5Z"/>
  <circle cx="32.5" cy="15.5" r="2.5" fill="#C4B5FD"/>
  <circle cx="16.5" cy="32" r="2" fill="#8B7CFF"/>
</svg>
